<svg xmlns="http://www.w3.org/2000/svg" xmlns:xlink="http://www.w3.org/1999/xlink" width="315" height="315.001" viewBox="0 0 315 315.001">
  <defs>
    <style>
      .cls-1 {
        fill: url(#linear-gradient);
      }
    </style>
    <linearGradient id="linear-gradient" x1="0.123" y1="0.143" x2="0.854" y2="0.875" gradientUnits="objectBoundingBox">
      <stop offset="0" stop-color="#ffe600"/>
      <stop offset="0.512" stop-color="#eb5000"/>
      <stop offset="1" stop-color="#be0046"/>
    </linearGradient>
  </defs>
  <g id="Circle_Orange" transform="translate(-227 -584.999)">
    <g id="Circles" transform="translate(-8481 -2944.048)">
      <path id="_3" data-name="3" class="cls-1" d="M3037.5-5338.951a158.687,158.687,0,0,1-31.742-3.2,156.749,156.749,0,0,1-29.564-9.177,157.512,157.512,0,0,1-26.753-14.521,158.633,158.633,0,0,1-23.31-19.232,158.6,158.6,0,0,1-19.232-23.31,157.518,157.518,0,0,1-14.522-26.753,156.7,156.7,0,0,1-9.177-29.564,158.668,158.668,0,0,1-3.2-31.742,158.668,158.668,0,0,1,3.2-31.742,156.7,156.7,0,0,1,9.177-29.564,157.535,157.535,0,0,1,14.522-26.754,158.612,158.612,0,0,1,19.232-23.31,158.678,158.678,0,0,1,23.31-19.233,157.565,157.565,0,0,1,26.753-14.521,156.717,156.717,0,0,1,29.564-9.178,158.687,158.687,0,0,1,31.742-3.2,158.687,158.687,0,0,1,31.742,3.2,156.706,156.706,0,0,1,29.564,9.178,157.537,157.537,0,0,1,26.753,14.521,158.65,158.65,0,0,1,23.31,19.233,158.6,158.6,0,0,1,19.232,23.31,157.507,157.507,0,0,1,14.521,26.754,156.7,156.7,0,0,1,9.177,29.564,158.668,158.668,0,0,1,3.2,31.742,158.668,158.668,0,0,1-3.2,31.742,156.7,156.7,0,0,1-9.177,29.564,157.507,157.507,0,0,1-14.521,26.753,158.6,158.6,0,0,1-19.232,23.31,158.6,158.6,0,0,1-23.31,19.232,157.493,157.493,0,0,1-26.753,14.521,156.738,156.738,0,0,1-29.564,9.177A158.687,158.687,0,0,1,3037.5-5338.951Zm0-309c-83.538,0-151.5,67.963-151.5,151.5s67.963,151.5,151.5,151.5,151.5-67.962,151.5-151.5S3121.038-5647.952,3037.5-5647.952Z" transform="translate(5828 9183)"/>
      <path id="_2" data-name="2" class="cls-1" d="M3028.5-5356.952a149.6,149.6,0,0,1-29.928-3.017,147.743,147.743,0,0,1-27.875-8.653,148.475,148.475,0,0,1-25.225-13.691,149.547,149.547,0,0,1-21.978-18.133,149.534,149.534,0,0,1-18.133-21.978,148.475,148.475,0,0,1-13.692-25.225,147.748,147.748,0,0,1-8.653-27.875,149.6,149.6,0,0,1-3.017-29.928,149.6,149.6,0,0,1,3.017-29.928,147.737,147.737,0,0,1,8.653-27.875,148.549,148.549,0,0,1,13.692-25.225,149.563,149.563,0,0,1,18.133-21.978,149.592,149.592,0,0,1,21.978-18.134,148.549,148.549,0,0,1,25.225-13.691,147.743,147.743,0,0,1,27.875-8.653,149.6,149.6,0,0,1,29.928-3.017,149.6,149.6,0,0,1,29.928,3.017,147.759,147.759,0,0,1,27.875,8.653,148.533,148.533,0,0,1,25.225,13.691,149.6,149.6,0,0,1,21.978,18.134,149.555,149.555,0,0,1,18.133,21.978,148.535,148.535,0,0,1,13.692,25.225,147.746,147.746,0,0,1,8.653,27.875,149.6,149.6,0,0,1,3.017,29.928,149.6,149.6,0,0,1-3.017,29.928,147.77,147.77,0,0,1-8.653,27.875,148.515,148.515,0,0,1-13.692,25.225,149.526,149.526,0,0,1-18.133,21.978,149.556,149.556,0,0,1-21.978,18.133,148.524,148.524,0,0,1-25.225,13.691,147.759,147.759,0,0,1-27.875,8.653A149.6,149.6,0,0,1,3028.5-5356.952Zm0-293c-79.677,0-144.5,64.823-144.5,144.5s64.822,144.5,144.5,144.5,144.5-64.822,144.5-144.5S3108.177-5649.952,3028.5-5649.952Z" transform="translate(5837 9192)"/>
      <g id="Group_10" data-name="Group 10">
        <circle id="_1" data-name="1" class="cls-1" cx="141.5" cy="141.5" r="141.5" transform="translate(8724 3545.048)"/>
      </g>
    </g>
  </g>
</svg>
