<svg width="437" height="510" viewBox="0 0 437 510" fill="none" xmlns="http://www.w3.org/2000/svg">
<mask id="mask0_1544_456" style="mask-type:alpha" maskUnits="userSpaceOnUse" x="0" y="0" width="437" height="510">
<rect width="437" height="510" fill="#D9D9D9"/>
</mask>
<g mask="url(#mask0_1544_456)">
<path d="M708 390C708 500.955 616.721 591 504 591C391.279 591 300 500.955 300 390C300 279.045 391.279 189 504 189C616.721 189 708 279.045 708 390Z" stroke="#4899DF" stroke-width="8"/>
<path d="M659 405.5C659 490.424 592.817 559 511.5 559C430.183 559 364 490.424 364 405.5C364 320.576 430.183 252 511.5 252C592.817 252 659 320.576 659 405.5Z" stroke="#4899DF" stroke-width="8"/>
</g>
</svg>
